<mxfile host="app.diagrams.net" modified="2024-02-06T04:40:52.845Z" agent="Mozilla/5.0 (Windows NT 10.0; Win64; x64) AppleWebKit/537.36 (KHTML, like Gecko) Chrome/120.0.0.0 Safari/537.36" etag="bILOzTyDxArDT5gFi57Q" version="23.0.2" type="github">
  <diagram name="Page-1" id="RKuhGRr5_K3Bsfk2XeNm">
    <mxGraphModel dx="794" dy="420" grid="1" gridSize="10" guides="1" tooltips="1" connect="1" arrows="1" fold="1" page="1" pageScale="1" pageWidth="850" pageHeight="1100" math="0" shadow="0">
      <root>
        <mxCell id="0" />
        <mxCell id="1" parent="0" />
        <mxCell id="nnjUiA6OTAYcYXJHSo-D-1" value="&lt;br&gt;&lt;br&gt;&lt;br&gt;&lt;br&gt;&lt;br&gt;&lt;br&gt;&lt;br&gt;&lt;br&gt;&lt;br&gt;&lt;br&gt;&lt;br&gt;&lt;br&gt;&lt;br&gt;&lt;br&gt;&lt;br&gt;&amp;nbsp; &amp;nbsp; &amp;nbsp; &amp;nbsp; &amp;nbsp; Terminal x 6 + Ground Terminal + Backplate" style="whiteSpace=wrap;html=1;aspect=fixed;" parent="1" vertex="1">
          <mxGeometry x="160" y="200" width="280" height="280" as="geometry" />
        </mxCell>
        <mxCell id="nnjUiA6OTAYcYXJHSo-D-5" value="" style="verticalLabelPosition=bottom;dashed=0;shadow=0;html=1;align=center;verticalAlign=top;shape=mxgraph.cabinets.din_rail;" parent="1" vertex="1">
          <mxGeometry x="185" y="402" width="230" height="17.5" as="geometry" />
        </mxCell>
        <mxCell id="nnjUiA6OTAYcYXJHSo-D-6" value="&lt;font style=&quot;font-size: 8px;&quot;&gt;Milesight &lt;br&gt;EM300-DI&lt;br&gt;&amp;nbsp;LoRaWAN Pulse Counter (Battery powered)&lt;br&gt;105.6 × 85.2 × 27 mm (4.15 × 3.35 × 1.06 inch)&lt;br&gt;&lt;/font&gt;" style="whiteSpace=wrap;html=1;aspect=fixed;dashed=1;align=center;" parent="1" vertex="1">
          <mxGeometry x="170" y="210" width="100" height="100" as="geometry" />
        </mxCell>
        <mxCell id="nnjUiA6OTAYcYXJHSo-D-7" value="" style="endArrow=none;html=1;rounded=0;exitX=0.505;exitY=-0.019;exitDx=0;exitDy=0;exitPerimeter=0;dashed=1;" parent="1" source="wXgiGkqOGTFS19LJ2bEK-4" edge="1">
          <mxGeometry width="50" height="50" relative="1" as="geometry">
            <mxPoint x="240.37999999999988" y="388.25" as="sourcePoint" />
            <mxPoint x="230" y="310" as="targetPoint" />
            <Array as="points">
              <mxPoint x="240" y="350" />
              <mxPoint x="230" y="350" />
            </Array>
          </mxGeometry>
        </mxCell>
        <mxCell id="nnjUiA6OTAYcYXJHSo-D-9" value="" style="endArrow=none;html=1;rounded=0;dashed=1;exitX=0.646;exitY=-0.01;exitDx=0;exitDy=0;exitPerimeter=0;" parent="1" edge="1">
          <mxGeometry width="50" height="50" relative="1" as="geometry">
            <mxPoint x="251.55599999999998" y="385.75" as="sourcePoint" />
            <mxPoint x="233.45" y="350.25" as="targetPoint" />
            <Array as="points">
              <mxPoint x="251.45" y="350.25" />
            </Array>
          </mxGeometry>
        </mxCell>
        <mxCell id="nnjUiA6OTAYcYXJHSo-D-16" value="Junction Box - 1.0 x 1.0 Feet&amp;nbsp;" style="text;html=1;align=center;verticalAlign=middle;resizable=0;points=[];autosize=1;strokeColor=none;fillColor=none;rotation=0;" parent="1" vertex="1">
          <mxGeometry x="213" y="170" width="180" height="30" as="geometry" />
        </mxCell>
        <mxCell id="nnjUiA6OTAYcYXJHSo-D-25" value="" style="endArrow=classic;html=1;rounded=0;fontColor=#FB0909;strokeColor=#f90101;exitX=0.532;exitY=0;exitDx=0;exitDy=0;exitPerimeter=0;" parent="1" edge="1" source="wXgiGkqOGTFS19LJ2bEK-16">
          <mxGeometry width="50" height="50" relative="1" as="geometry">
            <mxPoint x="440" y="524" as="sourcePoint" />
            <mxPoint x="410" y="510" as="targetPoint" />
          </mxGeometry>
        </mxCell>
        <mxCell id="wXgiGkqOGTFS19LJ2bEK-4" value="" style="verticalLabelPosition=bottom;dashed=0;shadow=0;html=1;align=center;verticalAlign=top;shape=mxgraph.cabinets.terminal_40mm2;" vertex="1" parent="1">
          <mxGeometry x="235" y="385.75" width="11" height="50" as="geometry" />
        </mxCell>
        <mxCell id="wXgiGkqOGTFS19LJ2bEK-5" value="" style="verticalLabelPosition=bottom;dashed=0;shadow=0;html=1;align=center;verticalAlign=top;shape=mxgraph.cabinets.terminal_40mm2;" vertex="1" parent="1">
          <mxGeometry x="246" y="385.75" width="11" height="50" as="geometry" />
        </mxCell>
        <mxCell id="wXgiGkqOGTFS19LJ2bEK-6" value="" style="verticalLabelPosition=bottom;dashed=0;shadow=0;html=1;align=center;verticalAlign=top;shape=mxgraph.cabinets.terminal_40mm2;" vertex="1" parent="1">
          <mxGeometry x="257" y="385.75" width="11" height="50" as="geometry" />
        </mxCell>
        <mxCell id="wXgiGkqOGTFS19LJ2bEK-7" value="" style="verticalLabelPosition=bottom;dashed=0;shadow=0;html=1;align=center;verticalAlign=top;shape=mxgraph.cabinets.terminal_40mm2;" vertex="1" parent="1">
          <mxGeometry x="268" y="385.75" width="11" height="50" as="geometry" />
        </mxCell>
        <mxCell id="wXgiGkqOGTFS19LJ2bEK-8" value="" style="verticalLabelPosition=bottom;dashed=0;shadow=0;html=1;align=center;verticalAlign=top;shape=mxgraph.cabinets.terminal_40mm2;" vertex="1" parent="1">
          <mxGeometry x="278" y="385.75" width="11" height="50" as="geometry" />
        </mxCell>
        <mxCell id="wXgiGkqOGTFS19LJ2bEK-9" value="" style="verticalLabelPosition=bottom;dashed=0;shadow=0;html=1;align=center;verticalAlign=top;shape=mxgraph.cabinets.terminal_40mm2;" vertex="1" parent="1">
          <mxGeometry x="289" y="385.75" width="11" height="50" as="geometry" />
        </mxCell>
        <mxCell id="wXgiGkqOGTFS19LJ2bEK-11" value="" style="verticalLabelPosition=bottom;dashed=0;shadow=0;html=1;align=center;verticalAlign=top;shape=mxgraph.cabinets.terminal_40mm2;labelBackgroundColor=#80F20C;" vertex="1" parent="1">
          <mxGeometry x="300" y="385.75" width="11" height="50" as="geometry" />
        </mxCell>
        <mxCell id="wXgiGkqOGTFS19LJ2bEK-12" value="" style="rounded=1;whiteSpace=wrap;html=1;" vertex="1" parent="1">
          <mxGeometry x="440" y="480" width="200" height="23" as="geometry" />
        </mxCell>
        <mxCell id="wXgiGkqOGTFS19LJ2bEK-13" value="" style="endArrow=none;html=1;rounded=0;edgeStyle=orthogonalEdgeStyle;curved=1;" edge="1" parent="1">
          <mxGeometry width="50" height="50" relative="1" as="geometry">
            <mxPoint x="610" y="520" as="sourcePoint" />
            <mxPoint x="670" y="460" as="targetPoint" />
            <Array as="points">
              <mxPoint x="640" y="520" />
              <mxPoint x="640" y="460" />
            </Array>
          </mxGeometry>
        </mxCell>
        <mxCell id="wXgiGkqOGTFS19LJ2bEK-14" value="1/2&quot; conduit or Rigid PVC or Liquid Tite" style="text;html=1;align=center;verticalAlign=middle;resizable=0;points=[];autosize=1;strokeColor=none;fillColor=default;fontSize=8;fontColor=#ff0000;strokeWidth=0;" vertex="1" parent="1">
          <mxGeometry x="445" y="482" width="160" height="20" as="geometry" />
        </mxCell>
        <mxCell id="wXgiGkqOGTFS19LJ2bEK-15" value="" style="endArrow=none;html=1;rounded=0;edgeStyle=orthogonalEdgeStyle;curved=1;" edge="1" parent="1">
          <mxGeometry width="50" height="50" relative="1" as="geometry">
            <mxPoint x="350" y="490" as="sourcePoint" />
            <mxPoint x="440" y="490" as="targetPoint" />
            <Array as="points">
              <mxPoint x="350" y="530" />
              <mxPoint x="410" y="530" />
              <mxPoint x="410" y="490" />
            </Array>
          </mxGeometry>
        </mxCell>
        <mxCell id="wXgiGkqOGTFS19LJ2bEK-16" value="- 16 inch of 2 pair&amp;nbsp; #18 AWG FT-4 wire and coiled in the box&lt;br&gt;&amp;nbsp; &amp;nbsp; &amp;nbsp; &amp;nbsp; &amp;nbsp; &amp;nbsp; &amp;nbsp; &amp;nbsp; &amp;nbsp; &amp;nbsp; &amp;nbsp;-&amp;nbsp; If using Rigid PVC 16 inch of #14 AWG grounding cable coiled in a box&amp;nbsp;&lt;br&gt;" style="text;html=1;align=center;verticalAlign=middle;resizable=0;points=[];autosize=1;strokeColor=none;fillColor=default;fontSize=8;fontColor=#ff0000;" vertex="1" parent="1">
          <mxGeometry x="285" y="545" width="330" height="30" as="geometry" />
        </mxCell>
      </root>
    </mxGraphModel>
  </diagram>
</mxfile>
